<?xml version="1.0" standalone="no"?>
<!DOCTYPE svg PUBLIC "-//W3C//DTD SVG 20010904//EN" "http://www.w3.org/TR/2001/REC-SVG-20010904/DTD/svg10.dtd">
<svg version="1.0" xmlns="http://www.w3.org/2000/svg"
    width="100.000000pt" height="100.000000pt" viewBox="0 0 100.000000 100.000000"
    preserveAspectRatio="xMidYMid meet">

    <g transform="translate(0.000000,100.000000) scale(0.100000,-0.100000)"
        fill="#FFFFFF" stroke="none">
        <path
            d="M425 971 c-92 -24 -173 -90 -215 -176 -34 -70 -34 -200 -2 -299 44
-131 164 -338 256 -441 l36 -40 36 40 c49 55 149 205 189 284 67 135 88 208
89 311 1 90 -1 98 -33 158 -57 105 -144 160 -260 167 -36 2 -79 1 -96 -4z
m165 -47 c76 -23 153 -100 176 -180 40 -137 -22 -324 -185 -561 -36 -53 -71
-98 -78 -100 -19 -7 -130 155 -193 282 -118 237 -119 377 -6 491 80 79 173
102 286 68z" />
        <path
            d="M432 760 c-70 -43 -92 -128 -49 -191 57 -86 178 -88 233 -4 77 118
-64 268 -184 195z m117 -34 c67 -35 65 -143 -4 -174 -51 -23 -107 -7 -131 39
-47 91 44 182 135 135z" />
    </g>
</svg>